 <svg  version="1.0" xmlns="http://www.w3.org/2000/svg"  width="900.000000pt" height="900.000000pt" viewBox="0 0 900.000000 900.000000"  preserveAspectRatio="xMidYMid meet">  <g transform="translate(0.000000,900.000000) scale(0.100000,-0.100000)" fill="#9333ea" stroke="none"> <path d="M0 4500 l0 -4500 4500 0 4500 0 0 4500 0 4500 -4500 0 -4500 0 0 -4500z m2460 2211 c5 -11 10 -67 10 -125 0 -94 -2 -106 -19 -116 -11 -5 -74 -10 -140 -10 l-121 0 -2 -1207 -3 -1208 -137 -3 -138 -3 0 1339 c0 736 3 1342 7 1345 3 4 125 7 269 7 250 0 264 -1 274 -19z m3260 -741 c224 -31 320 -73 449 -195 46 -44 87 -89 92 -100 5 -11 18 -35 30 -54 51 -85 77 -200 85 -388 5 -109 4 -146 -6 -158 -10 -13 -47 -15 -231 -15 -256 0 -239 -9 -239 123 0 167 -56 276 -172 337 -52 27 -214 28 -269 2 -46 -22 -80 -50 -104 -87 -72 -110 -75 -139 -75 -863 0 -401 4 -638 11 -685 27 -176 130 -267 301 -267 111 0 168 21 223 82 59 65 78 128 85 273 l5 120 235 0 235 0 -2 -128 c-2 -193 -16 -260 -87 -407 -55 -115 -221 -259 -355 -308 -120 -44 -186 -54 -341 -54 -156 -1 -211 7 -330 49 -214 74 -360 227 -423 443 -45 155 -49 226 -45 950 4 709 6 736 48 875 30 98 71 165 150 246 126 128 219 173 435 209 139 23 134 23 295 0z m-2450 -570 l5 -525 299 -5 c192 -3 304 -1 313 5 10 8 13 108 15 530 l3 520 243 3 c190 2 242 0 242 -10 2 -814 -2 -2663 -6 -2667 -10 -11 -448 -12 -464 -2 -13 9 -16 88 -20 578 l-5 568 -310 0 -310 0 -3 -564 c-1 -409 -5 -568 -14 -578 -17 -21 -455 -15 -468 7 -11 17 -14 2653 -3 2664 4 3 113 5 242 4 l236 -3 5 -525z m3814 -996 c14 -14 16 -115 16 -965 0 -936 0 -949 -20 -969 -19 -19 -33 -20 -272 -20 -139 0 -259 4 -266 8 -9 7 -12 41 -10 138 l3 129 135 5 135 5 3 829 c1 592 5 833 13 843 18 20 242 18 263 -3z m-2265 -1721 c69 -51 127 -90 475 -323 153 -103 218 -152 224 -170 5 -14 6 -46 4 -72 -4 -53 31 -22 -315 -270 -67 -48 -165 -119 -217 -157 -182 -132 -205 -144 -290 -149 -113 -7 -114 -5 -42 144 10 20 56 60 134 115 361 253 453 322 452 334 -1 8 -173 133 -231 167 -54 32 -342 230 -352 242 -22 26 49 186 82 186 5 0 39 -21 76 -47z m-449 -9 c0 -9 -6 -28 -14 -42 -7 -15 -22 -44 -32 -65 -25 -52 -69 -95 -151 -150 -37 -26 -106 -73 -153 -106 -47 -33 -122 -85 -167 -116 -78 -54 -102 -81 -86 -95 7 -6 251 -169 468 -313 50 -33 94 -63 98 -67 4 -4 0 -25 -9 -46 -36 -82 -43 -100 -48 -116 -7 -24 -37 -23 -69 2 -14 11 -28 20 -32 20 -4 0 -24 12 -44 28 -20 15 -43 32 -52 37 -9 6 -70 46 -135 90 -66 44 -126 84 -136 90 -9 5 -89 59 -177 118 l-161 109 0 61 0 62 85 60 c46 33 107 76 135 95 48 34 98 69 312 219 54 38 117 85 140 105 42 35 44 36 136 36 78 0 92 -2 92 -16z"/> </g> </svg> 